<?xml version="1.0" encoding="utf-8"?>
<!-- Generator: Adobe Illustrator 23.0.3, SVG Export Plug-In . SVG Version: 6.00 Build 0)  -->
<svg version="1.1" id="Layer_1" xmlns="http://www.w3.org/2000/svg" xmlns:xlink="http://www.w3.org/1999/xlink" x="0px" y="0px"
	 viewBox="0 0 512 561.5" style="enable-background:new 0 0 512 561.5;" xml:space="preserve">
<style type="text/css">
	.st0{fill:#CCA68C;}
	.st1{fill:#EACFB6;}
	.st2{fill:#968059;}
	.st3{fill:none;stroke:#010101;stroke-width:5.0972;stroke-miterlimit:10;}
	.st4{fill:#FFFFFF;}
	.st5{fill:#105B5A;}
	.st6{fill:#3C2415;}
	.st7{fill:#2BACE2;}
	.st8{fill:none;stroke:#3C2415;stroke-width:15.3828;stroke-linejoin:bevel;}
</style>
<title>barron_icon-ill-avatar-2</title>
<g>
	<path class="st0" d="M0,262c0-32.5,26.4-43.5,58.9-43.5s32.5,117.8,0,117.8S0,294.5,0,262z"/>
	<path class="st0" d="M512,262c0-32.5-26.4-43.5-58.9-43.5s-32.5,117.8,0,117.8S512,294.5,512,262z"/>
	<path class="st1" d="M48.6,262.2c0-121.5,92.8-220,207.3-220s207.4,98.5,207.4,220S370.6,482.4,256,482.4S48.6,383.7,48.6,262.2z"
		/>
	<path class="st2" d="M48.6,266.5C12.8,134,128.4,0,256,0s243.2,129.6,207.4,262.2c0,0,1.9-44.2-56.3-102.5
		c-10.2-10.2-26.5-41.1-19.3-67.4c0,0-233.7-17-280.3,29.5C49.9,179.6,48.6,266.5,48.6,266.5z"/>
	<path class="st3" d="M366,384.8c-60.8,60.7-159.2,60.7-220,0"/>
	<rect x="99.9" y="205.6" class="st4" width="137.6" height="84.5"/>
	<path class="st5" d="M141.1,231.3c-0.1-18.4,14.8-33.4,33.2-33.4s33.4,14.8,33.4,33.2s-14.8,33.4-33.2,33.4c0,0-0.1,0-0.1,0
		C156,264.5,141.1,249.7,141.1,231.3z"/>
	<path class="st6" d="M237.5,297.8H100.1l-7.7-7.6v-84.6l7.7-7.6h137.4l7.6,7.6v84.6L237.5,297.8z M107.5,282.2h122.2v-68.8H107.5
		V282.2z"/>
	<rect x="279.1" y="205.6" class="st4" width="137.6" height="84.5"/>
	<path class="st5" d="M309.5,231.3c-0.1-18.4,14.8-33.4,33.2-33.4c18.4-0.1,33.4,14.8,33.4,33.2c0.1,18.4-14.8,33.4-33.2,33.4
		c0,0-0.1,0-0.1,0C324.4,264.5,309.5,249.7,309.5,231.3z"/>
	<path class="st6" d="M416.6,297.8H279.1l-7.7-7.6v-84.6l7.7-7.6h137.5l7.7,7.6v84.6L416.6,297.8z M286.7,282.2H409v-68.8H286.7
		V282.2z"/>
	<path class="st0" d="M215,310.7c0-12.4,18.2-22.5,41-22.5s41,10.1,41,22.5s-18.2,22.4-41,22.4S215,322.9,215,310.7z"/>
	<polygon class="st7" points="256,482.1 176.7,561.5 74.3,459.1 125.4,407.9 	"/>
	<polygon class="st7" points="271.3,482.1 350.7,561.5 453.1,459.1 402,407.9 	"/>
	<line class="st8" x1="237.5" y1="239.1" x2="279.1" y2="239.1"/>
	<line class="st8" x1="416.6" y1="231.3" x2="466.9" y2="231.3"/>
	<line class="st8" x1="42.1" y1="231.3" x2="92.3" y2="231.3"/>
	<path class="st2" d="M384.8,91c0,0-132.6-13.2-166.3,47.3c0,0-18.2-50.5,33.6-71.9S384.8,91,384.8,91z"/>
	<path class="st2" d="M268.5,82.8c0,0-132,16.3-152.2,82.8c0,0-28.5-45.5,17.1-77.5S268.5,82.8,268.5,82.8z"/>
</g>
</svg>
